<?xml version="1.0" standalone="no"?><!DOCTYPE svg PUBLIC "-//W3C//DTD SVG 1.1//EN" "http://www.w3.org/Graphics/SVG/1.1/DTD/svg11.dtd"><svg t="1737707044347" class="icon" viewBox="0 0 1024 1024" version="1.1" xmlns="http://www.w3.org/2000/svg" p-id="4447" xmlns:xlink="http://www.w3.org/1999/xlink" width="32" height="32"><path d="M389.973333 877.952c0 23.722667 16.981333 40.661333 40.704 40.661333h162.645334c23.722667 0 40.661333-16.938667 40.661333-40.661333v-40.661333H390.016zM512 105.344c-155.861333 0-284.629333 128.768-284.629333 284.629333 0 98.261333 47.445333 182.997333 121.984 233.813334v91.477333c0 23.722667 16.938667 40.661333 40.661333 40.661333h243.968c23.722667 0 40.661333-16.938667 40.661333-40.661333V623.786667c74.538667-50.816 122.026667-135.552 122.026667-233.813334 0-155.861333-128.810667-284.629333-284.672-284.629333z m115.2 450.688l-33.877333 23.722667v94.890666h-162.645334v-94.890666l-33.877333-23.722667A201.045333 201.045333 0 0 1 308.693333 389.973333 203.946667 203.946667 0 0 1 512 186.666667a203.946667 203.946667 0 0 1 203.306667 203.306666 201.045333 201.045333 0 0 1-88.106667 166.058667z" fill="#0366f1" p-id="4448"></path></svg>